<?xml version="1.0" encoding="utf-8"?>
<!-- Generator: Adobe Illustrator 16.0.0, SVG Export Plug-In . SVG Version: 6.00 Build 0)  -->
<!DOCTYPE svg PUBLIC "-//W3C//DTD SVG 1.1//EN" "http://www.w3.org/Graphics/SVG/1.1/DTD/svg11.dtd">
<svg version="1.1" id="Layer_1" xmlns="http://www.w3.org/2000/svg" xmlns:xlink="http://www.w3.org/1999/xlink" x="0px" y="0px"
	 width="100.597px" height="141.992px" viewBox="290.2 325.004 100.597 141.992"
	 enable-background="new 290.2 325.004 100.597 141.992" xml:space="preserve">
<path fill="#FFFFFF" d="M299.355,455.592L290.2,352.909h100.599l-9.166,102.667l-41.195,11.421L299.355,455.592z M299.56,325.004
	v19.148h6.4v-6.412h5.855v6.412h6.4v-19.148h-6.4v6.323h-5.855v-6.323H299.56L299.56,325.004z M326.631,331.354v12.798h6.4v-12.798
	h5.637v-6.35h-17.672v6.35H326.631L326.631,331.354z M341.473,344.152h6.262v-9.491l4.406,6.808h0.111l4.402-6.808v9.491h6.373
	v-19.148h-6.676l-4.1,6.728l-4.105-6.728h-6.674V344.152z M366.213,344.152h15.402v-6.33h-9v-12.818h-6.402V344.152z M340.5,373.898
	h-0.045h-31.536l0.302,3.378l3.096,34.705h28.139h0.045h15.463l-1.461,16.333l-14.047,3.791v0.001l-0.01,0.004l-14.027-3.788
	l-0.896-10.043h-6.816h-5.826l1.764,19.773l25.799,7.161l0.059-0.016v-0.003l25.773-7.143l0.189-2.128l2.959-33.155l0.309-3.381
	h-3.395H340.5h-0.045h-16.621l-1.15-12.896h17.771h0.045h30.336h0.039l0.254-2.831l0.572-6.384l0.303-3.378H340.5z"/>
</svg>
